<svg width="40" height="40" viewBox="0 0 40 40" fill="none" xmlns="http://www.w3.org/2000/svg">
<path d="M36.1599 6.16C25.5799 6.16 21.1199 1.5 21.0799 1.46C21.0399 1.42 20.9999 1.4 20.9799 1.38C20.942 1.33584 20.8939 1.30153 20.8399 1.28C20.7599 1.22 20.6799 1.18 20.5999 1.14C20.5799 1.12 20.5599 1.1 20.5199 1.1C20.4999 1.1 20.4599 1.1 20.4399 1.08L20.1799 1.02C20.1199 1.02 20.0799 1 20.0199 1C19.9399 1 19.8399 1 19.7599 1.02C19.6999 1.02 19.6599 1.04 19.5999 1.06C19.5599 1.06 19.5199 1.06 19.4799 1.08C19.4199 1.1 19.3999 1.14 19.3599 1.16C19.2999 1.18 19.2399 1.2 19.1999 1.24C19.1285 1.28711 19.0615 1.34067 18.9999 1.4C18.9799 1.42 18.9399 1.44 18.9199 1.46C18.8799 1.5 14.4199 6.16 3.83988 6.16C3.03988 6.16 2.37988 6.82 2.37988 7.62V17.22C2.37988 18.2 2.43988 19.2 2.57988 20.18C3.53988 27.3 7.91988 33.48 14.2599 36.68C15.8799 37.5 17.6399 38.24 19.5199 38.9H19.5399C19.6799 38.98 19.8399 39 19.9999 39C20.1599 39 20.3199 38.98 20.4599 38.92H20.4799C22.3399 38.26 24.1199 37.52 25.7399 36.7C32.0799 33.48 36.4599 27.32 37.4199 20.2C37.5599 19.22 37.6199 18.22 37.6199 17.24V7.64C37.6199 6.82 36.9599 6.16 36.1599 6.16ZM5.29988 9.06C11.7999 8.82 16.0999 6.94 18.5399 5.42V18.54H5.33988C5.31988 18.1 5.29988 17.66 5.29988 17.22V9.06ZM24.4199 34.08C23.4799 34.56 22.4999 35 21.4599 35.42V21.46H34.2199C33.6148 24.1547 32.4229 26.6829 30.729 28.8642C29.035 31.0456 26.8809 32.8265 24.4199 34.08Z" fill="url(#paint0_linear_24492_4680)"/>
<defs>
<linearGradient id="paint0_linear_24492_4680" x1="2.37988" y1="1" x2="33.2471" y2="17.399" gradientUnits="userSpaceOnUse">
<stop stop-color="#319FEE"/>
<stop offset="1" stop-color="#21409A"/>
</linearGradient>
</defs>
</svg>
